<?xml version="1.0" encoding="iso-8859-1"?>
<!-- Uploaded to: SVG Repo, www.svgrepo.com, Generator: SVG Repo Mixer Tools -->
<svg height="800px" width="800px" version="1.1" id="Layer_1" xmlns="http://www.w3.org/2000/svg" xmlns:xlink="http://www.w3.org/1999/xlink" 
	 viewBox="0 0 512 512" xml:space="preserve">
<path style="fill:#FF9F19;" d="M372.87,228.174L345.043,256c0,49.097-39.946,89.043-89.043,89.043S166.957,305.097,166.957,256
	l-26-26H26L0,256c0,141.157,114.843,256,256,256s256-114.843,256-256l-27.826-27.826H372.87z"/>
<path style="fill:#F28618;" d="M512,256l-27.826-27.826H372.87L345.043,256c0,49.097-39.946,89.043-89.043,89.043V512
	C397.157,512,512,397.157,512,256z"/>
<path style="fill:#F26C9A;" d="M256,0C114.843,0,0,114.843,0,256c0,27.619,22.468,50.087,50.087,50.087
	c5.853,0,11.473-1.011,16.696-2.858v19.554c0,27.619,22.468,50.087,50.087,50.087s50.087-22.468,50.087-50.087V256
	c0-49.097,39.946-89.043,89.043-89.043s89.043,39.946,89.043,89.043v66.783c0,27.619,22.468,50.087,50.087,50.087
	c27.619,0,50.087-22.468,50.087-50.087v-19.554c5.222,1.848,10.842,2.858,16.696,2.858C489.532,306.087,512,283.619,512,256
	C512,114.843,397.157,0,256,0z"/>
<path style="fill:#D95782;" d="M345.043,256v66.783c0,27.619,22.468,50.087,50.087,50.087c27.619,0,50.087-22.468,50.087-50.087
	v-19.554c5.222,1.848,10.842,2.858,16.696,2.858C489.532,306.087,512,283.619,512,256C512,114.843,397.157,0,256,0v166.957
	C305.097,166.957,345.043,206.903,345.043,256z"/>
<g>
	<circle style="fill:#BDDEFF;" cx="428.522" cy="256" r="16.696"/>
	<circle style="fill:#BDDEFF;" cx="377.99" cy="134.01" r="16.696"/>
</g>
<circle style="fill:#D7EBFF;" cx="256" cy="83.478" r="16.696"/>
<path style="fill:#BDDEFF;" d="M272.696,83.478c0-9.22-7.475-16.696-16.696-16.696v33.391
	C265.22,100.174,272.696,92.699,272.696,83.478z"/>
<g>
	<circle style="fill:#D7EBFF;" cx="83.478" cy="256" r="16.696"/>
	<circle style="fill:#D7EBFF;" cx="134.01" cy="134.01" r="16.696"/>
</g>
</svg>